<?xml version="1.0" encoding="UTF-8" standalone="no"?><!-- Generator: Gravit.io --><svg xmlns="http://www.w3.org/2000/svg" xmlns:xlink="http://www.w3.org/1999/xlink" style="isolation:isolate" viewBox="0 0 200 137.5" width="200pt" height="137.5pt"><defs><clipPath id="_clipPath_S9rfq2hZDEKaNswDQZUb7yjsyCzEFXrd"><rect width="200" height="137.5"/></clipPath></defs><g clip-path="url(#_clipPath_S9rfq2hZDEKaNswDQZUb7yjsyCzEFXrd)"><g><path d=" M 162.5 137.5 L 37.5 137.5 C 16.85 137.5 0 120.65 0 100 C 0 83.837 10.45 69.575 25.437 64.5 C 27.487 50.5 38.187 39.8 51.712 37.837 C 57.287 15.683 77.155 0.114 100 0 C 118.312 0 134.875 9.912 143.65 25.625 C 167.387 21.2 187.5 39.75 187.5 62.5 C 187.5 65.375 187.162 68.312 186.425 71.187 C 195.031 78.279 200.011 88.849 200 100 C 200 120.65 183.15 137.5 162.5 137.5 Z  M 56.537 43.8 L 55.612 49.95 C 45.9 50 37.5 58.4 37.5 68.75 L 37.65 74.025 L 32.525 75.487 C 20.887 77.885 12.528 88.118 12.5 100 C 12.5 113.775 23.725 125 37.5 125 L 162.5 125 C 176.275 125 187.5 113.775 187.5 100 C 187.495 91.415 183.063 83.439 175.775 78.9 L 171.437 76.175 L 173.287 71.387 C 174.392 68.553 174.972 65.542 175 62.5 C 175 48.725 163.775 37.5 150 37.5 C 147.612 37.5 145.062 37.937 142.237 38.875 L 136.762 40.675 L 134.512 35.4 C 128.674 21.51 115.068 12.481 100 12.5 C 81.425 12.603 65.725 26.288 63.087 44.675 L 62.3 50.05 L 56.887 50.05 L 56.537 43.8 Z " fill="rgb(0,0,0)"/><path d=" M 80.988 82.468 L 99.914 106.286 L 93.703 106.286 L 77.121 85.603 L 73.166 89.089 L 73.166 106.286 L 68.068 106.286 L 68.068 62.956 L 73.166 62.956 L 73.166 84.226 L 92.209 62.956 L 98.566 62.956 L 80.988 82.468 Z  M 109.787 62.956 L 109.787 106.286 L 104.719 106.286 L 104.719 62.956 L 109.787 62.956 Z  M 133.84 67.439 L 133.84 106.286 L 128.742 106.286 L 128.742 67.439 L 115.412 67.439 L 115.412 62.956 L 147.17 62.956 L 147.17 67.439 L 133.84 67.439 Z " fill="rgb(0,0,0)"/></g></g></svg>